<?xml version="1.0" encoding="utf-8"?>
<svg viewBox="0 0 500 100" xmlns="http://www.w3.org/2000/svg">
  <path d="M 420.85 14.735 C 400.794 15.393 394.833 30.165 393.466 38.165 C 395.246 35.2 400.856 28.691 409.114 28.691 C 418.739 28.691 426.066 39.766 430.537 43.224 C 435.969 47.424 446.884 52.968 461.213 48.472 C 472.639 44.887 477.937 32.382 479.097 26.45 C 473.57 34.197 465.188 38.849 454.817 33.365 C 447.676 29.587 442.336 14.031 420.85 14.735 Z" style=""/>
  <path d="M 392.473 49.88 C 372.414 50.539 366.454 65.308 365.088 73.311 C 366.868 70.346 372.477 63.836 380.737 63.836 C 390.362 63.836 397.689 74.912 402.16 78.369 C 407.592 82.567 418.507 88.114 432.835 83.618 C 444.261 80.033 449.56 67.528 450.719 61.596 C 445.193 69.342 436.81 73.994 426.439 68.51 C 419.298 64.732 413.958 49.177 392.473 49.88 Z" style=""/>
  <path d="M 282.822 10.317 L 351.45 10.317 L 351.45 22.984 L 324.226 22.984 L 324.226 89.623 L 310.613 89.623 L 310.613 22.984 L 282.822 22.984 L 282.822 10.317 Z"/>
  <path d="M 169.955 10.317 L 169.955 22.984 L 114.945 22.984 L 114.945 43.361 L 159.184 43.361 L 159.184 56.028 L 114.945 56.028 L 114.945 76.956 L 169.955 76.956 L 169.955 89.623 L 101.333 89.623 L 101.333 22.984 L 101.328 22.984 L 101.328 10.317 L 169.955 10.317 Z"/>
  <path d="M 204.223 10.35 L 186.409 10.35 L 250.215 89.656 L 268.081 89.656 L 236.174 50.03 L 268.03 10.411 L 250.215 10.438 L 227.255 38.954 L 204.223 10.35 Z"/>
  <path d="M 222.503 66.999 L 213.582 55.907 L 186.358 89.716 L 204.223 89.716 L 222.503 66.999 Z"/>
  <path fill-rule="evenodd" clip-rule="evenodd" d="M 101.81 89.623 L 37.918 10.284 L 20.903 10.284 L 20.903 89.59 L 34.515 89.59 L 34.515 27.235 L 84.71 89.623 L 101.81 89.623 Z"/>
</svg>